<mxfile host="app.diagrams.net" modified="2022-06-02T06:38:23.472Z" agent="5.0 (Windows NT 6.1; Win64; x64) AppleWebKit/537.36 (KHTML, like Gecko) Chrome/101.0.4951.67 Safari/537.36" etag="FM3itsYfb8qPokVUR8sB" version="18.2.0" type="github">
  <diagram name="Page-1" id="d9b1e647-80fa-b4a2-5024-87a742678bcc">
    <mxGraphModel dx="868" dy="525" grid="1" gridSize="10" guides="1" tooltips="1" connect="1" arrows="0" fold="1" page="1" pageScale="1" pageWidth="500" pageHeight="1200" background="none" math="0" shadow="0">
      <root>
        <mxCell id="0" />
        <mxCell id="1" parent="0" />
        <mxCell id="57fe6abec08f04cb-7" value="" style="text;html=1;strokeColor=#6c8ebf;fillColor=#dae8fc;align=center;verticalAlign=middle;whiteSpace=wrap;fontSize=54;fontStyle=1;shadow=1;rounded=1;glass=0;sketch=0;arcSize=5;gradientColor=#7ea6e0;" parent="1" vertex="1">
          <mxGeometry x="50" y="90" width="720" height="90" as="geometry" />
        </mxCell>
        <mxCell id="60hh8dOJ01memG8-q0ME-10" value="" style="rounded=0;whiteSpace=wrap;html=1;shadow=0;glass=0;sketch=0;fontSize=20;fillColor=#f5f5f5;fontColor=#333333;strokeColor=#666666;opacity=80;" parent="57fe6abec08f04cb-7" vertex="1">
          <mxGeometry x="192.56" y="10.11" width="499.74" height="69.89" as="geometry" />
        </mxCell>
        <mxCell id="60hh8dOJ01memG8-q0ME-2" value="&lt;font style=&quot;font-size: 14px;&quot;&gt;APP&lt;/font&gt;" style="rounded=1;whiteSpace=wrap;html=1;shadow=0;glass=0;sketch=0;fillColor=#dae8fc;strokeColor=#6c8ebf;gradientColor=none;" parent="57fe6abec08f04cb-7" vertex="1">
          <mxGeometry x="222.43" y="31.02385087305333" width="77.56" height="29.327512977819733" as="geometry" />
        </mxCell>
        <mxCell id="60hh8dOJ01memG8-q0ME-9" value="&lt;span style=&quot;color: rgb(51, 51, 51);&quot;&gt;&lt;b&gt;&lt;font style=&quot;font-size: 16px;&quot;&gt;&amp;nbsp; 终端访问&lt;/font&gt;&lt;/b&gt;&lt;/span&gt;" style="html=1;shadow=0;dashed=0;align=left;verticalAlign=middle;shape=mxgraph.arrows2.arrow;dy=0;dx=42;notch=0;rounded=0;glass=0;sketch=0;fontSize=18;fillColor=#f5f5f5;fontColor=#333333;strokeColor=#666666;whiteSpace=wrap;opacity=80;" parent="57fe6abec08f04cb-7" vertex="1">
          <mxGeometry x="25.11" y="11.38" width="134.89" height="68.62" as="geometry" />
        </mxCell>
        <mxCell id="60hh8dOJ01memG8-q0ME-16" value="&lt;span style=&quot;font-size: 14px;&quot;&gt;队列消息&lt;/span&gt;" style="rounded=1;whiteSpace=wrap;html=1;shadow=0;glass=0;sketch=0;fillColor=#dae8fc;strokeColor=#6c8ebf;gradientColor=none;" parent="57fe6abec08f04cb-7" vertex="1">
          <mxGeometry x="492.43" y="31.02385087305333" width="77.56" height="29.327512977819733" as="geometry" />
        </mxCell>
        <mxCell id="60hh8dOJ01memG8-q0ME-15" value="&lt;font style=&quot;font-size: 14px;&quot;&gt;终端设备&lt;/font&gt;" style="rounded=1;whiteSpace=wrap;html=1;shadow=0;glass=0;sketch=0;fillColor=#dae8fc;strokeColor=#6c8ebf;gradientColor=none;" parent="57fe6abec08f04cb-7" vertex="1">
          <mxGeometry x="402.43" y="31.023850873053327" width="80" height="29.327512977819733" as="geometry" />
        </mxCell>
        <mxCell id="HtmfPYp2KWMltQhcVB6t-39" value="&lt;span style=&quot;font-size: 14px;&quot;&gt;openAPI&lt;/span&gt;" style="rounded=1;whiteSpace=wrap;html=1;shadow=0;glass=0;sketch=0;fillColor=#dae8fc;strokeColor=#6c8ebf;gradientColor=none;" vertex="1" parent="57fe6abec08f04cb-7">
          <mxGeometry x="582.43" y="31.023850873053327" width="80" height="29.327512977819733" as="geometry" />
        </mxCell>
        <mxCell id="60hh8dOJ01memG8-q0ME-12" value="&lt;font style=&quot;font-size: 14px;&quot;&gt;WEB&lt;/font&gt;" style="rounded=1;whiteSpace=wrap;html=1;shadow=0;glass=0;sketch=0;fillColor=#dae8fc;strokeColor=#6c8ebf;gradientColor=none;" parent="57fe6abec08f04cb-7" vertex="1">
          <mxGeometry x="312.43" y="31.023850873053334" width="79.09" height="29.327512977819733" as="geometry" />
        </mxCell>
        <mxCell id="60hh8dOJ01memG8-q0ME-18" value="" style="text;html=1;strokeColor=#d6b656;fillColor=#fff2cc;align=center;verticalAlign=middle;whiteSpace=wrap;fontSize=54;fontStyle=1;shadow=1;rounded=1;glass=0;sketch=0;arcSize=2;gradientColor=#ffd966;" parent="1" vertex="1">
          <mxGeometry x="50" y="267" width="720" height="403" as="geometry" />
        </mxCell>
        <mxCell id="60hh8dOJ01memG8-q0ME-19" value="" style="rounded=0;whiteSpace=wrap;html=1;shadow=0;glass=0;sketch=0;fontSize=20;fillColor=#f5f5f5;fontColor=#333333;strokeColor=#666666;opacity=80;" parent="60hh8dOJ01memG8-q0ME-18" vertex="1">
          <mxGeometry x="170" y="17.57" width="521.96" height="157.43" as="geometry" />
        </mxCell>
        <mxCell id="60hh8dOJ01memG8-q0ME-21" value="&lt;div style=&quot;&quot;&gt;&lt;b style=&quot;font-size: 15px;&quot;&gt;&amp;nbsp; 统一身份&lt;br&gt;&amp;nbsp; 认证管理&lt;/b&gt;&lt;br&gt;&lt;/div&gt;" style="html=1;shadow=0;dashed=0;align=left;verticalAlign=middle;shape=mxgraph.arrows2.arrow;dy=0;dx=36;notch=0;rounded=0;glass=0;sketch=0;fontSize=18;fillColor=#f5f5f5;fontColor=#333333;strokeColor=#666666;whiteSpace=wrap;opacity=80;" parent="60hh8dOJ01memG8-q0ME-18" vertex="1">
          <mxGeometry x="25.12" y="17.57" width="114.88" height="157.43" as="geometry" />
        </mxCell>
        <mxCell id="60hh8dOJ01memG8-q0ME-29" value="" style="rounded=0;whiteSpace=wrap;html=1;shadow=0;glass=0;sketch=0;fontSize=20;fillColor=#f5f5f5;fontColor=#333333;strokeColor=#666666;opacity=80;" parent="60hh8dOJ01memG8-q0ME-18" vertex="1">
          <mxGeometry x="190" y="222.99565217391307" width="498.11" height="77.00804347826087" as="geometry" />
        </mxCell>
        <mxCell id="60hh8dOJ01memG8-q0ME-30" value="&lt;font style=&quot;font-size: 14px;&quot;&gt;用户管理&lt;/font&gt;" style="rounded=1;whiteSpace=wrap;html=1;shadow=0;glass=0;sketch=0;fillColor=#ffe6cc;strokeColor=#d79b00;" parent="60hh8dOJ01memG8-q0ME-18" vertex="1">
          <mxGeometry x="217.23909090909095" y="244.09167542972705" width="87.2727272727273" height="34.80795348837209" as="geometry" />
        </mxCell>
        <mxCell id="60hh8dOJ01memG8-q0ME-31" value="&lt;span style=&quot;color: rgb(51, 51, 51);&quot;&gt;&lt;b style=&quot;font-size: 15px;&quot;&gt;&lt;font style=&quot;font-size: 15px;&quot;&gt;&amp;nbsp; 统一认证&lt;br&gt;&amp;nbsp; 登录门户&lt;br&gt;&lt;/font&gt;&lt;/b&gt;&lt;/span&gt;" style="html=1;shadow=0;dashed=0;align=left;verticalAlign=middle;shape=mxgraph.arrows2.arrow;dy=0;dx=42.16;notch=0;rounded=0;glass=0;sketch=0;fontSize=18;fillColor=#f5f5f5;fontColor=#333333;strokeColor=#666666;whiteSpace=wrap;opacity=80;" parent="60hh8dOJ01memG8-q0ME-18" vertex="1">
          <mxGeometry x="25.12" y="222.99565217391307" width="114.88" height="77.00804347826087" as="geometry" />
        </mxCell>
        <mxCell id="60hh8dOJ01memG8-q0ME-32" value="&lt;font style=&quot;font-size: 14px;&quot;&gt;角色管理&lt;/font&gt;" style="rounded=1;whiteSpace=wrap;html=1;shadow=0;glass=0;sketch=0;fillColor=#ffe6cc;strokeColor=#d79b00;" parent="60hh8dOJ01memG8-q0ME-18" vertex="1">
          <mxGeometry x="558.8900000000001" y="244.09167542972705" width="101.98545454545454" height="34.80795348837209" as="geometry" />
        </mxCell>
        <mxCell id="60hh8dOJ01memG8-q0ME-33" value="&lt;font style=&quot;font-size: 14px;&quot;&gt;安全中心&lt;/font&gt;" style="rounded=1;whiteSpace=wrap;html=1;shadow=0;glass=0;sketch=0;fillColor=#ffe6cc;strokeColor=#d79b00;" parent="60hh8dOJ01memG8-q0ME-18" vertex="1">
          <mxGeometry x="428.14818181818185" y="244.09167542972705" width="101.81818181818184" height="34.80795348837209" as="geometry" />
        </mxCell>
        <mxCell id="60hh8dOJ01memG8-q0ME-34" value="&lt;font style=&quot;font-size: 14px;&quot;&gt;&lt;font style=&quot;font-size: 14px;&quot;&gt;应用&lt;/font&gt;&lt;font style=&quot;font-size: 14px;&quot;&gt;管理&lt;/font&gt;&lt;/font&gt;" style="rounded=1;whiteSpace=wrap;html=1;shadow=0;glass=0;sketch=0;fillColor=#ffe6cc;strokeColor=#d79b00;" parent="60hh8dOJ01memG8-q0ME-18" vertex="1">
          <mxGeometry x="322.6936363636365" y="244.09167542972705" width="90.90909090909092" height="34.80795348837209" as="geometry" />
        </mxCell>
        <mxCell id="60hh8dOJ01memG8-q0ME-35" value="" style="rounded=0;whiteSpace=wrap;html=1;shadow=0;glass=0;sketch=0;fontSize=20;fillColor=#f5f5f5;fontColor=#333333;strokeColor=#666666;opacity=80;" parent="60hh8dOJ01memG8-q0ME-18" vertex="1">
          <mxGeometry x="193.85" y="327" width="498.11" height="57.6" as="geometry" />
        </mxCell>
        <mxCell id="60hh8dOJ01memG8-q0ME-36" value="&lt;font style=&quot;font-size: 14px;&quot;&gt;用户管理&lt;/font&gt;" style="rounded=1;whiteSpace=wrap;html=1;shadow=0;glass=0;sketch=0;fillColor=#ffe6cc;strokeColor=#d79b00;" parent="60hh8dOJ01memG8-q0ME-18" vertex="1">
          <mxGeometry x="219.99909090909097" y="338.3941880687565" width="87.2727272727273" height="34.80795348837209" as="geometry" />
        </mxCell>
        <mxCell id="60hh8dOJ01memG8-q0ME-37" value="&lt;span style=&quot;color: rgb(51, 51, 51);&quot;&gt;&lt;b style=&quot;font-size: 15px;&quot;&gt;&lt;font style=&quot;font-size: 15px;&quot;&gt;&amp;nbsp; 统一认证&lt;br&gt;&amp;nbsp; 管理平台&lt;/font&gt;&lt;/b&gt;&lt;/span&gt;" style="html=1;shadow=0;dashed=0;align=left;verticalAlign=middle;shape=mxgraph.arrows2.arrow;dy=0;dx=42.16;notch=0;rounded=0;glass=0;sketch=0;fontSize=18;fillColor=#f5f5f5;fontColor=#333333;strokeColor=#666666;whiteSpace=wrap;opacity=80;" parent="60hh8dOJ01memG8-q0ME-18" vertex="1">
          <mxGeometry x="25.12" y="327" width="114.88" height="57.6" as="geometry" />
        </mxCell>
        <mxCell id="60hh8dOJ01memG8-q0ME-38" value="&lt;font style=&quot;font-size: 14px;&quot;&gt;角色管理&lt;/font&gt;" style="rounded=1;whiteSpace=wrap;html=1;shadow=0;glass=0;sketch=0;fillColor=#ffe6cc;strokeColor=#d79b00;" parent="60hh8dOJ01memG8-q0ME-18" vertex="1">
          <mxGeometry x="550.0000000000001" y="338.3941880687565" width="101.98545454545454" height="34.80795348837209" as="geometry" />
        </mxCell>
        <mxCell id="60hh8dOJ01memG8-q0ME-39" value="&lt;font style=&quot;font-size: 14px;&quot;&gt;安全中心&lt;/font&gt;" style="rounded=1;whiteSpace=wrap;html=1;shadow=0;glass=0;sketch=0;fillColor=#ffe6cc;strokeColor=#d79b00;" parent="60hh8dOJ01memG8-q0ME-18" vertex="1">
          <mxGeometry x="420.29818181818183" y="338.3941880687565" width="101.81818181818184" height="34.80795348837209" as="geometry" />
        </mxCell>
        <mxCell id="60hh8dOJ01memG8-q0ME-40" value="&lt;font style=&quot;font-size: 14px;&quot;&gt;应用管理&lt;/font&gt;" style="rounded=1;whiteSpace=wrap;html=1;shadow=0;glass=0;sketch=0;fillColor=#ffe6cc;strokeColor=#d79b00;" parent="60hh8dOJ01memG8-q0ME-18" vertex="1">
          <mxGeometry x="314.54363636363644" y="338.3941880687565" width="90.90909090909092" height="34.80795348837209" as="geometry" />
        </mxCell>
        <mxCell id="HtmfPYp2KWMltQhcVB6t-26" value="" style="group" vertex="1" connectable="0" parent="60hh8dOJ01memG8-q0ME-18">
          <mxGeometry x="190" y="26" width="106.65999999999997" height="140" as="geometry" />
        </mxCell>
        <mxCell id="60hh8dOJ01memG8-q0ME-20" value="" style="rounded=0;whiteSpace=wrap;html=1;shadow=0;glass=0;sketch=0;fillColor=#ffe6cc;strokeColor=#d79b00;" parent="HtmfPYp2KWMltQhcVB6t-26" vertex="1">
          <mxGeometry width="106.66" height="140" as="geometry" />
        </mxCell>
        <mxCell id="HtmfPYp2KWMltQhcVB6t-22" value="&lt;font style=&quot;font-size: 12px;&quot;&gt;&lt;b&gt;统一登录服务&lt;/b&gt;&lt;/font&gt;" style="text;html=1;strokeColor=none;fillColor=none;align=center;verticalAlign=middle;whiteSpace=wrap;rounded=0;shadow=1;fontSize=16;" vertex="1" parent="HtmfPYp2KWMltQhcVB6t-26">
          <mxGeometry x="13.830000000000013" y="2" width="79" height="30" as="geometry" />
        </mxCell>
        <mxCell id="HtmfPYp2KWMltQhcVB6t-23" value="用户注册" style="rounded=0;whiteSpace=wrap;html=1;shadow=0;fontSize=12;fillColor=#f9f7ed;strokeColor=#36393d;dashed=1;" vertex="1" parent="HtmfPYp2KWMltQhcVB6t-26">
          <mxGeometry x="6.3300000000000125" y="32" width="94" height="30" as="geometry" />
        </mxCell>
        <mxCell id="HtmfPYp2KWMltQhcVB6t-24" value="密码管理" style="rounded=0;whiteSpace=wrap;html=1;shadow=0;fontSize=12;fillColor=#f9f7ed;strokeColor=default;dashed=1;" vertex="1" parent="HtmfPYp2KWMltQhcVB6t-26">
          <mxGeometry x="6.330000000000041" y="68" width="94" height="30" as="geometry" />
        </mxCell>
        <mxCell id="HtmfPYp2KWMltQhcVB6t-25" value="加密登录" style="rounded=0;whiteSpace=wrap;html=1;shadow=0;fontSize=12;fillColor=#f9f7ed;strokeColor=#36393d;dashed=1;" vertex="1" parent="HtmfPYp2KWMltQhcVB6t-26">
          <mxGeometry x="6.330000000000041" y="105" width="94" height="30" as="geometry" />
        </mxCell>
        <mxCell id="HtmfPYp2KWMltQhcVB6t-27" value="" style="group" vertex="1" connectable="0" parent="60hh8dOJ01memG8-q0ME-18">
          <mxGeometry x="307.27" y="26.279999999999973" width="106.65999999999997" height="140" as="geometry" />
        </mxCell>
        <mxCell id="HtmfPYp2KWMltQhcVB6t-28" value="" style="rounded=0;whiteSpace=wrap;html=1;shadow=0;glass=0;sketch=0;fillColor=#ffe6cc;strokeColor=#d79b00;" vertex="1" parent="HtmfPYp2KWMltQhcVB6t-27">
          <mxGeometry width="106.66" height="140" as="geometry" />
        </mxCell>
        <mxCell id="HtmfPYp2KWMltQhcVB6t-29" value="&lt;font style=&quot;font-size: 12px;&quot;&gt;&lt;b&gt;统一身份认证&lt;/b&gt;&lt;/font&gt;" style="text;html=1;strokeColor=none;fillColor=none;align=center;verticalAlign=middle;whiteSpace=wrap;rounded=0;shadow=1;fontSize=16;" vertex="1" parent="HtmfPYp2KWMltQhcVB6t-27">
          <mxGeometry x="13.830000000000013" y="2" width="79" height="30" as="geometry" />
        </mxCell>
        <mxCell id="HtmfPYp2KWMltQhcVB6t-30" value="终端支持" style="rounded=0;whiteSpace=wrap;html=1;shadow=0;fontSize=12;fillColor=#f9f7ed;strokeColor=#36393d;dashed=1;" vertex="1" parent="HtmfPYp2KWMltQhcVB6t-27">
          <mxGeometry x="6.3300000000000125" y="32" width="94" height="30" as="geometry" />
        </mxCell>
        <mxCell id="HtmfPYp2KWMltQhcVB6t-31" value="密码验证" style="rounded=0;whiteSpace=wrap;html=1;shadow=0;fontSize=12;fillColor=#f9f7ed;strokeColor=default;dashed=1;" vertex="1" parent="HtmfPYp2KWMltQhcVB6t-27">
          <mxGeometry x="6.330000000000041" y="68" width="94" height="30" as="geometry" />
        </mxCell>
        <mxCell id="HtmfPYp2KWMltQhcVB6t-32" value="CA认证" style="rounded=0;whiteSpace=wrap;html=1;shadow=0;fontSize=12;fillColor=#f9f7ed;strokeColor=#36393d;dashed=1;" vertex="1" parent="HtmfPYp2KWMltQhcVB6t-27">
          <mxGeometry x="6.330000000000041" y="105" width="94" height="30" as="geometry" />
        </mxCell>
        <mxCell id="HtmfPYp2KWMltQhcVB6t-33" value="" style="group" vertex="1" connectable="0" parent="60hh8dOJ01memG8-q0ME-18">
          <mxGeometry x="423.31" y="26" width="106.65999999999997" height="140" as="geometry" />
        </mxCell>
        <mxCell id="HtmfPYp2KWMltQhcVB6t-34" value="" style="rounded=0;whiteSpace=wrap;html=1;shadow=0;glass=0;sketch=0;fillColor=#ffe6cc;strokeColor=#d79b00;" vertex="1" parent="HtmfPYp2KWMltQhcVB6t-33">
          <mxGeometry width="106.66" height="140" as="geometry" />
        </mxCell>
        <mxCell id="HtmfPYp2KWMltQhcVB6t-35" value="&lt;font style=&quot;font-size: 12px;&quot;&gt;&lt;b&gt;统一安全管理&lt;/b&gt;&lt;/font&gt;" style="text;html=1;strokeColor=none;fillColor=none;align=center;verticalAlign=middle;whiteSpace=wrap;rounded=0;shadow=1;fontSize=16;" vertex="1" parent="HtmfPYp2KWMltQhcVB6t-33">
          <mxGeometry x="13.830000000000013" y="2" width="79" height="30" as="geometry" />
        </mxCell>
        <mxCell id="HtmfPYp2KWMltQhcVB6t-36" value="安全防范" style="rounded=0;whiteSpace=wrap;html=1;shadow=0;fontSize=12;fillColor=#f9f7ed;strokeColor=#36393d;dashed=1;" vertex="1" parent="HtmfPYp2KWMltQhcVB6t-33">
          <mxGeometry x="6.3300000000000125" y="32" width="94" height="30" as="geometry" />
        </mxCell>
        <mxCell id="HtmfPYp2KWMltQhcVB6t-37" value="数据加密" style="rounded=0;whiteSpace=wrap;html=1;shadow=0;fontSize=12;fillColor=#f9f7ed;strokeColor=default;dashed=1;" vertex="1" parent="HtmfPYp2KWMltQhcVB6t-33">
          <mxGeometry x="6.330000000000041" y="68" width="94" height="30" as="geometry" />
        </mxCell>
        <mxCell id="HtmfPYp2KWMltQhcVB6t-38" value="票据验证" style="rounded=0;whiteSpace=wrap;html=1;shadow=0;fontSize=12;fillColor=#f9f7ed;strokeColor=#36393d;dashed=1;" vertex="1" parent="HtmfPYp2KWMltQhcVB6t-33">
          <mxGeometry x="6.330000000000041" y="105" width="94" height="30" as="geometry" />
        </mxCell>
        <mxCell id="60hh8dOJ01memG8-q0ME-41" value="" style="text;html=1;strokeColor=#82b366;fillColor=#d5e8d4;align=center;verticalAlign=middle;whiteSpace=wrap;fontSize=54;fontStyle=1;shadow=1;rounded=1;glass=0;sketch=0;gradientColor=#97d077;arcSize=5;" parent="1" vertex="1">
          <mxGeometry x="50" y="785" width="720" height="84" as="geometry" />
        </mxCell>
        <mxCell id="60hh8dOJ01memG8-q0ME-42" value="" style="rounded=0;whiteSpace=wrap;html=1;shadow=0;glass=0;sketch=0;fontSize=20;fillColor=#f5f5f5;fontColor=#333333;strokeColor=#666666;opacity=80;" parent="60hh8dOJ01memG8-q0ME-41" vertex="1">
          <mxGeometry x="192.55813953488368" y="12.000000000000002" width="485.58139534883713" height="60.00000000000001" as="geometry" />
        </mxCell>
        <mxCell id="60hh8dOJ01memG8-q0ME-43" value="&lt;font style=&quot;font-size: 14px;&quot;&gt;应用系统1&lt;/font&gt;" style="rounded=1;whiteSpace=wrap;html=1;shadow=0;glass=0;sketch=0;fillColor=#d5e8d4;strokeColor=#82b366;gradientColor=none;" parent="60hh8dOJ01memG8-q0ME-41" vertex="1">
          <mxGeometry x="210.91" y="30.62684210526316" width="87.27" height="20.21526315789474" as="geometry" />
        </mxCell>
        <mxCell id="60hh8dOJ01memG8-q0ME-44" value="&lt;div style=&quot;&quot;&gt;&lt;b style=&quot;background-color: initial; font-size: 16px;&quot;&gt;&amp;nbsp; 统一认证&lt;/b&gt;&lt;/div&gt;&lt;span style=&quot;color: rgb(51, 51, 51);&quot;&gt;&lt;div style=&quot;&quot;&gt;&lt;b style=&quot;background-color: initial; font-size: 16px;&quot;&gt;&amp;nbsp; 数据中心&lt;/b&gt;&lt;/div&gt;&lt;/span&gt;" style="html=1;shadow=0;dashed=0;align=left;verticalAlign=middle;shape=mxgraph.arrows2.arrow;dy=0;dx=39;notch=0;rounded=0;glass=0;sketch=0;fontSize=18;fillColor=#f5f5f5;fontColor=#333333;strokeColor=#666666;whiteSpace=wrap;opacity=80;" parent="60hh8dOJ01memG8-q0ME-41" vertex="1">
          <mxGeometry x="25.11" y="13.5" width="114.89" height="58.5" as="geometry" />
        </mxCell>
        <mxCell id="60hh8dOJ01memG8-q0ME-45" value="&lt;font style=&quot;font-size: 14px;&quot;&gt;应用系统1&lt;/font&gt;" style="rounded=1;whiteSpace=wrap;html=1;shadow=0;glass=0;sketch=0;fillColor=#d5e8d4;strokeColor=#82b366;gradientColor=none;" parent="60hh8dOJ01memG8-q0ME-41" vertex="1">
          <mxGeometry x="552.56" y="30.62684210526316" width="100.47" height="20.21526315789474" as="geometry" />
        </mxCell>
        <mxCell id="60hh8dOJ01memG8-q0ME-46" value="&lt;font style=&quot;font-size: 14px;&quot;&gt;应用系统1&lt;/font&gt;" style="rounded=1;whiteSpace=wrap;html=1;shadow=0;glass=0;sketch=0;fillColor=#d5e8d4;strokeColor=#82b366;gradientColor=none;" parent="60hh8dOJ01memG8-q0ME-41" vertex="1">
          <mxGeometry x="421.82" y="30.62684210526316" width="100.47" height="20.21526315789474" as="geometry" />
        </mxCell>
        <mxCell id="60hh8dOJ01memG8-q0ME-49" value="&lt;font style=&quot;font-size: 14px;&quot;&gt;应用系统1&lt;/font&gt;" style="rounded=1;whiteSpace=wrap;html=1;shadow=0;glass=0;sketch=0;fillColor=#d5e8d4;strokeColor=#82b366;gradientColor=none;" parent="60hh8dOJ01memG8-q0ME-41" vertex="1">
          <mxGeometry x="316.36" y="30.62684210526316" width="87.27" height="20.21526315789474" as="geometry" />
        </mxCell>
        <mxCell id="HtmfPYp2KWMltQhcVB6t-5" value="" style="shape=doubleArrow;direction=south;whiteSpace=wrap;html=1;fontSize=18;arrowWidth=0.3333333333333333;arrowSize=0.23;fillColor=#1ba1e2;fontColor=#ffffff;strokeColor=#006EAF;" vertex="1" parent="1">
          <mxGeometry x="240" y="197" width="30" height="61" as="geometry" />
        </mxCell>
        <mxCell id="HtmfPYp2KWMltQhcVB6t-6" value="" style="shape=doubleArrow;direction=south;whiteSpace=wrap;html=1;fontSize=18;arrowWidth=0.3333333333333333;arrowSize=0.23;fillColor=#1ba1e2;fontColor=#ffffff;strokeColor=#006EAF;" vertex="1" parent="1">
          <mxGeometry x="610" y="197" width="30" height="59" as="geometry" />
        </mxCell>
        <mxCell id="HtmfPYp2KWMltQhcVB6t-7" value="公网" style="text;html=1;align=center;verticalAlign=middle;resizable=0;points=[];autosize=1;strokeColor=none;fillColor=none;fontSize=18;" vertex="1" parent="1">
          <mxGeometry x="200" y="217" width="50" height="30" as="geometry" />
        </mxCell>
        <mxCell id="HtmfPYp2KWMltQhcVB6t-8" value="内网" style="text;html=1;align=center;verticalAlign=middle;resizable=0;points=[];autosize=1;strokeColor=none;fillColor=none;fontSize=18;" vertex="1" parent="1">
          <mxGeometry x="640" y="215" width="50" height="30" as="geometry" />
        </mxCell>
        <mxCell id="HtmfPYp2KWMltQhcVB6t-9" value="" style="shape=doubleArrow;direction=south;whiteSpace=wrap;html=1;fontSize=18;arrowWidth=0.3333333333333333;arrowSize=0.23;fillColor=#cdeb8b;strokeColor=#36393d;" vertex="1" parent="1">
          <mxGeometry x="235" y="710" width="30" height="66" as="geometry" />
        </mxCell>
        <mxCell id="HtmfPYp2KWMltQhcVB6t-10" value="" style="shape=doubleArrow;direction=south;whiteSpace=wrap;html=1;fontSize=18;arrowWidth=0.3333333333333333;arrowSize=0.23;fillColor=#cdeb8b;strokeColor=#36393d;" vertex="1" parent="1">
          <mxGeometry x="610" y="710" width="30" height="66" as="geometry" />
        </mxCell>
        <mxCell id="HtmfPYp2KWMltQhcVB6t-18" value="" style="rounded=1;whiteSpace=wrap;html=1;fontSize=14;arcSize=3;fillColor=#e6d0de;strokeColor=#996185;gradientColor=#d5739d;shadow=1;" vertex="1" parent="1">
          <mxGeometry x="790" y="90" width="170" height="580" as="geometry" />
        </mxCell>
        <mxCell id="HtmfPYp2KWMltQhcVB6t-19" value="统一部署" style="rounded=0;whiteSpace=wrap;html=1;fontSize=14;" vertex="1" parent="1">
          <mxGeometry x="815" y="128" width="120" height="60" as="geometry" />
        </mxCell>
        <mxCell id="HtmfPYp2KWMltQhcVB6t-20" value="统一运维" style="rounded=0;whiteSpace=wrap;html=1;fontSize=14;" vertex="1" parent="1">
          <mxGeometry x="815" y="267" width="120" height="60" as="geometry" />
        </mxCell>
        <mxCell id="HtmfPYp2KWMltQhcVB6t-21" value="统一风险管控" style="rounded=0;whiteSpace=wrap;html=1;fontSize=14;" vertex="1" parent="1">
          <mxGeometry x="815" y="380" width="120" height="60" as="geometry" />
        </mxCell>
      </root>
    </mxGraphModel>
  </diagram>
</mxfile>
